<svg id="_x31__x2C_5" enable-background="new 0 0 24 24" height="512" viewBox="0 0 24 24" width="512" xmlns="http://www.w3.org/2000/svg"><path d="m4.75 20.25h-1.25c-1.519 0-2.75-1.231-2.75-2.75 0-1.519 1.231-2.75 2.75-2.75h1.25z" fill="#90a4ae"/><path d="m19.25 14.75h1.25c1.519 0 2.75 1.231 2.75 2.75 0 1.519-1.231 2.75-2.75 2.75h-1.25z" fill="#90a4ae"/><path d="m12 19.75c-.414 0-.75-.336-.75-.75v-5.25c0-.414.336-.75.75-.75s.75.336.75.75v5.25c0 .414-.336.75-.75.75z"/><path d="m16.25 23h-8.5c-.414 0-.75-.336-.75-.75s.336-.75.75-.75h8.5c.414 0 .75.336.75.75s-.336.75-.75.75z"/><path d="m12 20c-.192 0-.384-.073-.53-.22l-1.75-1.75c-.293-.293-.293-.768 0-1.061s.768-.293 1.061 0l1.22 1.22 1.22-1.22c.293-.293.768-.293 1.061 0s.293.768 0 1.061l-1.75 1.75c-.148.147-.34.22-.532.22z"/><path d="m4.75 21h-1.25c-1.93 0-3.5-1.57-3.5-3.5s1.57-3.5 3.5-3.5h1.25c.414 0 .75.336.75.75s-.336.75-.75.75h-1.25c-1.103 0-2 .897-2 2s.897 2 2 2h1.25c.414 0 .75.336.75.75s-.336.75-.75.75z"/><path d="m20.5 21h-1.25c-.414 0-.75-.336-.75-.75s.336-.75.75-.75h1.25c1.103 0 2-.897 2-2s-.897-2-2-2h-1.25c-.414 0-.75-.336-.75-.75s.336-.75.75-.75h1.25c1.93 0 3.5 1.57 3.5 3.5s-1.57 3.5-3.5 3.5z"/><path d="m19.25 22c-.414 0-.75-.336-.75-.75v-7.5c0-.414.336-.75.75-.75s.75.336.75.75v7.5c0 .414-.336.75-.75.75z"/><path d="m4.75 22c-.414 0-.75-.336-.75-.75v-7.5c0-.414.336-.75.75-.75s.75.336.75.75v7.5c0 .414-.336.75-.75.75z"/><path d="m21.25 15.25c-.414 0-.75-.336-.75-.75v-4.5c0-4.687-3.813-8.5-8.5-8.5s-8.5 3.813-8.5 8.5v4.5c0 .414-.336.75-.75.75s-.75-.336-.75-.75v-4.5c0-5.514 4.486-10 10-10s10 4.486 10 10v4.5c0 .414-.336.75-.75.75z"/></svg>