<svg id="Filled_stroke_cutting_Ex" height="512" viewBox="0 0 512 512" width="512" xmlns="http://www.w3.org/2000/svg" data-name="Filled stroke cutting Ex"><g><g><g><path d="m288 488 16-24h42a30 30 0 0 0 30-30v-26h-120v-192h-42.3772a30 30 0 0 0 -28.4605 20.5132l-25.1623 75.4868v88l-40 72v16z" fill="#ffd4cf"/><path d="m288 496h-168a8 8 0 0 1 -8-8v-16a8.0029 8.0029 0 0 1 1.0068-3.8853l38.9932-70.1879v-45.9268h16v48a8.0029 8.0029 0 0 1 -1.0068 3.8853l-38.9932 70.1879v5.9268h155.7188l13.625-20.4375a7.9992 7.9992 0 0 1 6.6562-3.5625h42a21.7816 21.7816 0 0 0 16.1348-7.0439l11.73 10.88a38.1192 38.1192 0 0 1 -27.8648 12.1639h-37.7188l-13.625 20.4375a7.9992 7.9992 0 0 1 -6.6562 3.5625z"/><rect fill="#fa5d3f" height="408" rx="20" width="224" x="232" y="24"/><path d="m264 112h160v176h-160z" fill="#fac850"/><path d="m288 216h40v40h-40z" fill="#fffdfa"/><path d="m240 192h-16v-148a28.0314 28.0314 0 0 1 28-28h184a28.0314 28.0314 0 0 1 28 28v20h-16v-20a12.0134 12.0134 0 0 0 -12-12h-184a12.0134 12.0134 0 0 0 -12 12z"/><path d="m224 288h32a40 40 0 0 0 40-40v-32h-72z" fill="#ffd4cf"/><path d="m448 80v332a12.0134 12.0134 0 0 1 -12 12h-184a12.0134 12.0134 0 0 1 -12-12v-116h16a48.054 48.054 0 0 0 48-48v-32a8 8 0 0 0 -8-8h-82.377a37.9538 37.9538 0 0 0 -36.0507 25.9834l-25.1623 75.4866a8.0117 8.0117 0 0 0 -.41 2.53v24h16v-22.7017l24.752-74.2548a21.9717 21.9717 0 0 1 20.871-15.0435h74.377v24a32.0364 32.0364 0 0 1 -32 32h-32v132a28.0314 28.0314 0 0 0 28 28h184a28.0314 28.0314 0 0 0 28-28v-332z"/><path d="m432 136h-16v-16h-16v-16h24a8 8 0 0 1 8 8z"/><path d="m424 296h-24v-16h16v-16h16v24a8 8 0 0 1 -8 8z"/><path d="m272 136h-16v-24a8 8 0 0 1 8-8h24v16h-16z"/></g><path d="m360 144h40v40h-40z" fill="#fffdfa"/><path d="m400 192h-40a8 8 0 0 1 -8-8v-40a8 8 0 0 1 8-8h40a8 8 0 0 1 8 8v40a8 8 0 0 1 -8 8zm-32-16h24v-24h-24z"/><path d="m288 144h40v40h-40z" fill="#fffdfa"/><path d="m328 192h-40a8 8 0 0 1 -8-8v-40a8 8 0 0 1 8-8h40a8 8 0 0 1 8 8v40a8 8 0 0 1 -8 8zm-32-16h24v-24h-24z"/><path d="m360 216h40v40h-40z" fill="#fffdfa"/><path d="m400 264h-40a8 8 0 0 1 -8-8v-40a8 8 0 0 1 8-8h40a8 8 0 0 1 8 8v40a8 8 0 0 1 -8 8zm-32-16h24v-24h-24z"/><path d="m328 264h-8v-56h8a8 8 0 0 1 8 8v40a8 8 0 0 1 -8 8z"/><path d="m304 48h80v16h-80z"/><path d="m272 48h16v16h-16z"/><path d="m400 48h16v16h-16z"/><g><circle cx="344" cy="352" fill="#fac850" r="48"/><path d="m344 408a56 56 0 1 1 56-56 56.0632 56.0632 0 0 1 -56 56zm0-96a40 40 0 1 0 40 40 40.0455 40.0455 0 0 0 -40-40z"/><path d="m336 376a7.9757 7.9757 0 0 1 -5.6572-2.3433l-16-16 11.3144-11.3134 10.3428 10.3432 26.3428-26.3432 11.3144 11.3134-32 32a7.9757 7.9757 0 0 1 -5.6572 2.3433z"/></g></g><path d="m110.5244 211.1548a122.9758 122.9758 0 0 1 -48.5313-77.1067l-5.9931-38.0507 71.9007-32.0608 71.9 32.0608-6.055 38.3647a122.9389 122.9389 0 0 1 -49.1643 77.5584l-16.6167 12.0795z" fill="#79d8eb"/><path d="m127.9648 232a7.9868 7.9868 0 0 1 -4.7441-1.5586l-17.44-12.8452a133.4364 133.4364 0 0 1 -39.3383-45.9282l14.2187-7.336a117.3569 117.3569 0 0 0 34.6075 40.3814l12.7275 9.3735 11.8809-8.6369a114.9723 114.9723 0 0 0 45.98-72.4287l5.085-32.2139-63.042-28.1116-63.044 28.1118 5.0245 31.9009a113.6289 113.6289 0 0 0 4.3795 16.6763l-15.1211 5.23a129.6819 129.6819 0 0 1 -5.0166-19.1362c-.0108-.062-.0215-.124-.0313-.1865l-5.9931-38.05a8 8 0 0 1 4.6445-8.5513l71.9-32.061a7.9977 7.9977 0 0 1 6.5156 0l71.9 32.061a8 8 0 0 1 4.6445 8.5537l-6.055 38.3655c-.01.0615-.02.1235-.0313.1855a130.9042 130.9042 0 0 1 -52.331 82.5957l-16.6163 12.08a7.99 7.99 0 0 1 -4.7041 1.5288z"/><path d="m119.81 167.9976a7.9763 7.9763 0 0 1 -5.6573-2.3433l-24-24 11.3145-11.3135 18.3428 18.3433 42.3427-42.3433 11.3145 11.3135-48 48a7.9763 7.9763 0 0 1 -5.6572 2.3433z"/></g></svg>